<svg xmlns="http://www.w3.org/2000/svg" width="25" height="26" viewBox="0 0 25 26">
  <g id="Group_2371" data-name="Group 2371" transform="translate(-633 -1849)">
    <g id="Ellipse_547" data-name="Ellipse 547" transform="translate(633 1849)" fill="none" stroke="#fff" stroke-width="2">
      <ellipse cx="12.5" cy="13" rx="12.5" ry="13" stroke="none"/>
      <ellipse cx="12.5" cy="13" rx="11.5" ry="12" fill="none"/>
    </g>
    <g id="Group_2368" data-name="Group 2368" transform="translate(137.208 1527.795)">
      <path id="Path_4217" data-name="Path 4217" d="M508.388,328.394c1.761,0,1.97.007,2.666.038a3.657,3.657,0,0,1,1.225.227,2.183,2.183,0,0,1,1.252,1.252,3.642,3.642,0,0,1,.227,1.225c.032.7.039.9.039,2.665s-.007,1.97-.039,2.666a3.643,3.643,0,0,1-.227,1.225,2.182,2.182,0,0,1-1.252,1.252,3.656,3.656,0,0,1-1.225.227c-.7.031-.9.038-2.666.038s-1.97-.007-2.666-.038a3.656,3.656,0,0,1-1.225-.227,2.183,2.183,0,0,1-1.252-1.252,3.644,3.644,0,0,1-.227-1.225c-.031-.7-.038-.9-.038-2.666s.007-1.97.038-2.665a3.643,3.643,0,0,1,.227-1.225,2.183,2.183,0,0,1,1.252-1.252,3.657,3.657,0,0,1,1.225-.227c.7-.031.9-.038,2.666-.038m0-1.189c-1.792,0-2.016.008-2.719.04a4.83,4.83,0,0,0-1.6.307,3.374,3.374,0,0,0-1.929,1.929,4.841,4.841,0,0,0-.306,1.6c-.032.7-.04.928-.04,2.719s.008,2.016.04,2.72a4.841,4.841,0,0,0,.306,1.6,3.374,3.374,0,0,0,1.929,1.929,4.831,4.831,0,0,0,1.6.307c.7.032.928.04,2.719.04s2.016-.008,2.719-.04a4.831,4.831,0,0,0,1.6-.307,3.374,3.374,0,0,0,1.929-1.929,4.841,4.841,0,0,0,.306-1.6c.032-.7.04-.928.04-2.72s-.007-2.016-.04-2.719a4.842,4.842,0,0,0-.306-1.6,3.374,3.374,0,0,0-1.929-1.929,4.829,4.829,0,0,0-1.6-.307c-.7-.032-.928-.04-2.719-.04Z" fill="#fff"/>
      <path id="Path_4218" data-name="Path 4218" d="M511.307,333.333a3.387,3.387,0,1,0,3.387,3.387A3.387,3.387,0,0,0,511.307,333.333Zm0,5.586a2.2,2.2,0,1,1,2.2-2.2A2.2,2.2,0,0,1,511.307,338.919Z" transform="translate(-2.919 -2.919)" fill="#fff"/>
      <circle id="Ellipse_542" data-name="Ellipse 542" cx="0.792" cy="0.792" r="0.792" transform="translate(511.118 329.489)" fill="#fff"/>
    </g>
  </g>
</svg>
