<svg xmlns="http://www.w3.org/2000/svg" width="26" height="26" viewBox="0 0 26 26">
  <g id="Group_2372" data-name="Group 2372" transform="translate(-675 -1849)">
    <g id="Ellipse_546" data-name="Ellipse 546" transform="translate(675 1849)" fill="none" stroke="#fff" stroke-width="2">
      <circle cx="13" cy="13" r="13" stroke="none"/>
      <circle cx="13" cy="13" r="12" fill="none"/>
    </g>
    <path id="Path_4222" data-name="Path 4222" d="M54.391,42.92H43.833a.914.914,0,0,0-.914.914V54.392a.914.914,0,0,0,.914.914H54.391a.914.914,0,0,0,.914-.914V43.834A.914.914,0,0,0,54.391,42.92ZM46.611,53.472H44.749V47.556h1.862Zm-.931-6.735a1.069,1.069,0,1,1,1.074-1.069A1.054,1.054,0,0,1,45.68,46.737Zm7.8,6.74H51.614V50.246c0-.953-.405-1.247-.928-1.247a1.133,1.133,0,0,0-1.094,1.271v3.207H47.729V47.561H49.52v.82h.024a2.032,2.032,0,0,1,1.77-.986,2.121,2.121,0,0,1,2.162,2.423Z" transform="translate(638.89 1812.887)" fill="#fff"/>
  </g>
</svg>
