<svg xmlns="http://www.w3.org/2000/svg" width="25" height="26" viewBox="0 0 25 26">
  <g id="Group_2373" data-name="Group 2373" transform="translate(-718 -1849)">
    <g id="Ellipse_544" data-name="Ellipse 544" transform="translate(718 1849)" fill="none" stroke="#fff" stroke-width="2">
      <ellipse cx="12.5" cy="13" rx="12.5" ry="13" stroke="none"/>
      <ellipse cx="12.5" cy="13" rx="11.5" ry="12" fill="none"/>
    </g>
    <g id="Group_2367" data-name="Group 2367" transform="translate(634.224 1742.479)">
      <path id="Path_4216" data-name="Path 4216" d="M101.665,117.251c.005.119.008.239.008.359A7.908,7.908,0,0,1,89.5,124.272a5.661,5.661,0,0,0,.663.039,5.579,5.579,0,0,0,3.453-1.19,2.783,2.783,0,0,1-2.6-1.931,2.775,2.775,0,0,0,1.256-.048,2.782,2.782,0,0,1-2.231-2.726c0-.012,0-.024,0-.035a2.76,2.76,0,0,0,1.259.348,2.783,2.783,0,0,1-.861-3.712,7.894,7.894,0,0,0,5.731,2.9,2.782,2.782,0,0,1,4.738-2.536,5.572,5.572,0,0,0,1.765-.675,2.791,2.791,0,0,1-1.223,1.538,5.551,5.551,0,0,0,1.6-.438A5.657,5.657,0,0,1,101.665,117.251Z" fill="#fff"/>
    </g>
  </g>
</svg>
