<svg xmlns="http://www.w3.org/2000/svg" width="26" height="26" viewBox="0 0 26 26">
  <g id="Group_2374" data-name="Group 2374" transform="translate(-758 -1849)">
    <g id="Ellipse_543" data-name="Ellipse 543" transform="translate(758 1849)" fill="none" stroke="#fff" stroke-width="2">
      <circle cx="13" cy="13" r="13" stroke="none"/>
      <circle cx="13" cy="13" r="12" fill="none"/>
    </g>
    <path id="Path_4223" data-name="Path 4223" d="M389.452,261.625a1.787,1.787,0,0,0-1.263-1.263,52.29,52.29,0,0,0-11.168,0,1.79,1.79,0,0,0-1.264,1.263,20.012,20.012,0,0,0,0,6.881,1.79,1.79,0,0,0,1.264,1.263,52.3,52.3,0,0,0,11.168,0,1.787,1.787,0,0,0,1.263-1.263,19.943,19.943,0,0,0,0-6.881Zm-8.276,5.584v-4.287l3.713,2.144Z" transform="translate(388.541 1596.937)" fill="#fff"/>
  </g>
</svg>
